<?xml version="1.0" encoding="UTF-8"?>
<svg xmlns="http://www.w3.org/2000/svg" width="512" height="512" viewBox="0 0 64 64" fill="none">
  <title>NeuroTrace — Scope mark (reversed on ink)</title>
  <rect width="64" height="64" fill="#0F1722"></rect>
  <rect x="8" y="8" width="48" height="48" rx="4" stroke="#B9CCDE" stroke-width="1.5"></rect>
  <g opacity="0.22" stroke="#B9CCDE" stroke-width="0.6">
    <path d="M8 20 H56"></path>
    <path d="M8 32 H56"></path>
    <path d="M8 44 H56"></path>
    <path d="M20 8 V56"></path>
    <path d="M32 8 V56"></path>
    <path d="M44 8 V56"></path>
  </g>
  <path d="M10 38 H24" stroke="#F0F4F7" stroke-width="1.6" stroke-linecap="round"></path>
  <path d="M24 38 C 27 38 28.5 38 29.5 33 L 31 22 C 31.5 19 33 19 33.5 22 L 35.5 46 C 36 49 37.5 49 38.5 46 L 40 40" stroke="#F0F4F7" stroke-width="1.8" stroke-linecap="round" stroke-linejoin="round"></path>
  <path d="M40 40 H54" stroke="#F0F4F7" stroke-width="1.6" stroke-linecap="round"></path>
  <path d="M10 38 H54" stroke="#F0F4F7" stroke-width="0.8" stroke-dasharray="2 3" opacity="0.35" fill="none"></path>
</svg>